<svg xmlns="http://www.w3.org/2000/svg" viewBox="0 0 1200 820" role="img" aria-labelledby="title desc">
  <title id="title">Exira summer ride route map</title>
  <desc id="desc">Black and white route-style map showing Onawa, Harlan, Exira, Guthrie Center, Boone, Marshalltown, Independence, Dyersville, and Dubuque.</desc>
  <rect width="1200" height="820" fill="#fff"/>
  <g fill="none" stroke="#111" stroke-linecap="round" stroke-linejoin="round">
    <path d="M120 170 C210 110, 315 120, 400 180 S570 245, 650 210 S820 160, 930 230 S1040 335, 1085 440 S1070 610, 960 665 S760 705, 620 655 S420 575, 300 620 S130 655, 95 560 S90 420, 180 360 S250 270, 120 170Z" stroke-width="6"/>
    <path d="M155 210 C235 260, 290 335, 335 410 C385 495, 510 510, 590 455 C670 398, 775 395, 850 470 C920 540, 975 590, 1040 610" stroke-width="5" stroke-dasharray="14 16"/>
    <path d="M330 410 C365 380, 400 365, 445 355" stroke-width="4"/>
    <path d="M205 250 C255 235, 310 245, 360 280" stroke-width="3"/>
    <path d="M705 430 C755 450, 805 455, 850 470" stroke-width="3"/>
  </g>
  <g font-family="Inter, Arial, sans-serif" fill="#111">
    <text x="600" y="90" text-anchor="middle" font-family="Georgia, serif" font-size="58" font-weight="700">The Summer Ride</text>
    <text x="600" y="132" text-anchor="middle" font-size="22" letter-spacing="4">EXIRA, IOWA · JULY 20, 2026</text>
    <text x="600" y="760" text-anchor="middle" font-size="22" letter-spacing="2">Small town stops, big memories</text>
  </g>
  <g fill="#fff" stroke="#111" stroke-width="5">
    <circle cx="155" cy="210" r="15"/>
    <circle cx="260" cy="315" r="15"/>
    <circle cx="330" cy="410" r="24"/>
    <circle cx="445" cy="355" r="15"/>
    <circle cx="590" cy="455" r="15"/>
    <circle cx="710" cy="420" r="15"/>
    <circle cx="850" cy="470" r="15"/>
    <circle cx="960" cy="565" r="15"/>
    <circle cx="1040" cy="610" r="15"/>
  </g>
  <g font-family="Inter, Arial, sans-serif" fill="#111" font-size="24" font-weight="800">
    <text x="155" y="178" text-anchor="middle">Onawa</text>
    <text x="260" y="290" text-anchor="middle">Harlan</text>
    <text x="330" y="462" text-anchor="middle">Exira</text>
    <text x="445" y="330" text-anchor="middle">Guthrie Center</text>
    <text x="590" y="500" text-anchor="middle">Boone</text>
    <text x="710" y="392" text-anchor="middle">Marshalltown</text>
    <text x="850" y="515" text-anchor="middle">Independence</text>
    <text x="960" y="545" text-anchor="middle">Dyersville</text>
    <text x="1040" y="654" text-anchor="middle">Dubuque</text>
  </g>
  <g fill="#111" font-family="Inter, Arial, sans-serif">
    <path d="M330 370 l13 27 30 4 -22 21 5 30 -26 -15 -27 15 6 -30 -22 -21 30 -4z"/>
    <text x="330" y="505" text-anchor="middle" font-size="18" font-weight="900" letter-spacing="1">MEETING TOWN</text>
    <text x="330" y="528" text-anchor="middle" font-size="16">Harlan to Guthrie Center</text>
  </g>
  <g fill="none" stroke="#111" stroke-linecap="round" stroke-linejoin="round" stroke-width="5">
    <path d="M145 682 h105 m-85-30 20 30-20 30 m40-60 20 30-20 30"/>
    <circle cx="150" cy="684" r="30"/>
    <circle cx="250" cy="684" r="30"/>
  </g>
</svg>
