<svg xmlns="http://www.w3.org/2000/svg" viewBox="0 0 900 900" role="img" aria-label="Natural tote mockup with corrected Exira route map art">
  <rect width="900" height="900" fill="#fff"/>
  <path d="M260 130 C260 70, 640 70, 640 130" fill="none" stroke="#d9cbb5" stroke-width="34" stroke-linecap="round"/>
  <path d="M210 155 h480 l45 615 H165z" fill="#f4ead8" stroke="#d8cbb6" stroke-width="6"/>
  <path d="M245 220 h410 v465 H245z" fill="#f8f3e9"/>
  <g transform="translate(265 245) scale(.31)">
    <rect width="1200" height="820" fill="#f8f3e9"/>
    <g fill="none" stroke="#111" stroke-linecap="round" stroke-linejoin="round">
      <path d="M120 170 C210 110, 315 120, 400 180 S570 245, 650 210 S820 160, 930 230 S1040 335, 1085 440 S1070 610, 960 665 S760 705, 620 655 S420 575, 300 620 S130 655, 95 560 S90 420, 180 360 S250 270, 120 170Z" stroke-width="6"/>
      <path d="M155 210 C235 260, 290 335, 335 410 C385 495, 510 510, 590 455 C670 398, 775 395, 850 470 C920 540, 975 590, 1040 610" stroke-width="5" stroke-dasharray="14 16"/>
    </g>
    <g font-family="Inter, Arial, sans-serif" fill="#111">
      <text x="600" y="90" text-anchor="middle" font-family="Georgia, serif" font-size="58" font-weight="700">The Summer Ride</text>
      <text x="600" y="132" text-anchor="middle" font-size="22" letter-spacing="4">EXIRA, IOWA · JULY 20, 2026</text>
    </g>
    <g fill="#f8f3e9" stroke="#111" stroke-width="5">
      <circle cx="155" cy="210" r="15"/>
      <circle cx="260" cy="315" r="15"/>
      <circle cx="330" cy="410" r="24"/>
      <circle cx="445" cy="355" r="15"/>
      <circle cx="590" cy="455" r="15"/>
      <circle cx="710" cy="420" r="15"/>
      <circle cx="850" cy="470" r="15"/>
      <circle cx="960" cy="565" r="15"/>
      <circle cx="1040" cy="610" r="15"/>
    </g>
    <g font-family="Inter, Arial, sans-serif" fill="#111" font-size="24" font-weight="800">
      <text x="155" y="178" text-anchor="middle">Onawa</text>
      <text x="260" y="290" text-anchor="middle">Harlan</text>
      <text x="330" y="462" text-anchor="middle">Exira</text>
      <text x="445" y="330" text-anchor="middle">Guthrie Center</text>
      <text x="590" y="500" text-anchor="middle">Boone</text>
      <text x="710" y="392" text-anchor="middle">Marshalltown</text>
      <text x="850" y="515" text-anchor="middle">Independence</text>
      <text x="960" y="545" text-anchor="middle">Dyersville</text>
      <text x="1040" y="654" text-anchor="middle">Dubuque</text>
    </g>
    <path d="M330 370 l13 27 30 4 -22 21 5 30 -26 -15 -27 15 6 -30 -22 -21 30 -4z" fill="#111"/>
  </g>
  <text x="450" y="748" text-anchor="middle" font-family="Georgia, serif" font-size="35" fill="#111">Exira, Iowa</text>
  <text x="450" y="790" text-anchor="middle" font-family="Inter, Arial, sans-serif" font-size="22" letter-spacing="3" fill="#111">JULY 20, 2026</text>
</svg>
