<svg xmlns="http://www.w3.org/2000/svg" viewBox="0 0 900 620" role="img" aria-label="Tree in the middle of the rural road flat vector draft">
  <rect width="900" height="620" fill="#fff6e4"/>
  <path d="M105 110h690v400H105z" fill="#eef5ef" stroke="#09233f" stroke-width="20"/>
  <path d="M175 510c95-185 175-280 275-280s180 95 275 280z" fill="#d8b16a"/>
  <path d="M330 510c40-178 78-270 120-270s80 92 120 270" fill="none" stroke="#fff6e4" stroke-width="10" opacity=".75"/>
  <path d="M105 390c120-45 210-58 320-25 120 36 220 22 370-42v187H105z" fill="#496227" opacity=".92"/>
  <path d="M420 275h60v170h-60z" fill="#6d4a2e"/>
  <circle cx="450" cy="210" r="100" fill="#496227"/>
  <circle cx="380" cy="245" r="70" fill="#5f7834"/>
  <circle cx="525" cy="250" r="76" fill="#5f7834"/>
  <text x="450" y="575" text-anchor="middle" font-family="Georgia, serif" font-size="52" font-weight="900" fill="#09233f">TREE ROAD · EXIRA</text>
</svg>
